<?xml version="1.0" encoding="UTF-8"?>
<svg version="1.1" xmlns="http://www.w3.org/2000/svg" width="1080" height="1080">
<path d="M0 0 C0.66 0 1.32 0 2 0 C2 1.65 2 3.3 2 5 C3.98 5 5.96 5 8 5 C7.73958333 7.01822917 7.47916667 9.03645833 7.21875 11.0546875 C6.9627515 13.00498344 6.9627515 13.00498344 7 15 C10.26460973 13.19587357 11.88929795 12.16605307 14 9 C15.98 9.33 17.96 9.66 20 10 C21.15837626 14.05431692 20.83691257 16.21812119 19 20 C18.34 20 17.68 20 17 20 C17.66 21.32 18.32 22.64 19 24 C22.3 24 25.6 24 29 24 C29 24.99 29 25.98 29 27 C28.34 27 27.68 27 27 27 C27 29.31 27 31.62 27 34 C27.804375 34.268125 28.60875 34.53625 29.4375 34.8125 C30.283125 35.204375 31.12875 35.59625 32 36 C32.33 36.99 32.66 37.98 33 39 C33.99 39 34.98 39 36 39 C37.7890625 41.265625 37.7890625 41.265625 39.625 44.25 C40.23601562 45.22453125 40.84703125 46.1990625 41.4765625 47.203125 C44.53696209 52.82170476 44.25005155 58.35517541 44.3125 64.625 C44.35600586 66.04619141 44.35600586 66.04619141 44.40039062 67.49609375 C44.48934744 77.50031368 41.59982386 85.0596073 34.72265625 92.31640625 C27.33757765 99.53402275 20.90163574 101.52965213 10.8125 101.5 C9.92369141 101.52835937 9.03488281 101.55671875 8.11914062 101.5859375 C5.63930835 101.59339004 3.42284178 101.53221777 1 101 C-1.42578125 98.53125 -1.42578125 98.53125 -3 96 C-3.99 95.67 -4.98 95.34 -6 95 C-6 95.99 -6 96.98 -6 98 C-9.71599191 98.20086443 -10.77208445 98.1519437 -14 96 C-14 95.34 -14 94.68 -14 94 C-14.5775 93.773125 -15.155 93.54625 -15.75 93.3125 C-18.6388676 91.62732723 -20.1512471 89.77312935 -22 87 C-22 85.68 -22 84.36 -22 83 C-22.66 83 -23.32 83 -24 83 C-26.25998595 79.40537669 -26.20868087 76.43404325 -26.125 72.25 C-26.10695312 71.07953125 -26.08890625 69.9090625 -26.0703125 68.703125 C-26.04710937 67.81109375 -26.02390625 66.9190625 -26 66 C-26.99 66 -27.98 66 -29 66 C-28.855625 65.28328125 -28.71125 64.5665625 -28.5625 63.828125 C-28.20024712 62.006798 -27.84548304 60.18395733 -27.5 58.359375 C-27.335 57.49828125 -27.17 56.6371875 -27 55.75 C-26.835 54.87859375 -26.67 54.0071875 -26.5 53.109375 C-26 51 -26 51 -25 50 C-26.65 49.67 -28.3 49.34 -30 49 C-29.67 48.01 -29.34 47.02 -29 46 C-27.67696283 45.6278958 -26.34262065 45.29369827 -25 45 C-24.67 44.34 -24.34 43.68 -24 43 C-23.34 43 -22.68 43 -22 43 C-22 42.01 -22 41.02 -22 40 C-24.97 39.34 -27.94 38.68 -31 38 C-30.67 36.68 -30.34 35.36 -30 34 C-28.68 34 -27.36 34 -26 34 C-26 33.34 -26 32.68 -26 32 C-26.66 32 -27.32 32 -28 32 C-28 31.34 -28 30.68 -28 30 C-28.66 30 -29.32 30 -30 30 C-30.33 28.02 -30.66 26.04 -31 24 C-31.66 24 -32.32 24 -33 24 C-33.66 23.01 -34.32 22.02 -35 21 C-35.99 20.67 -36.98 20.34 -38 20 C-38 18.68 -38 17.36 -38 16 C-35.23723823 16.52268466 -32.6739124 17.10869587 -30 18 C-26.55008814 18.66062142 -23.5299898 19 -20 19 C-19.34 19.33 -18.68 19.66 -18 20 C-18.495 17.525 -18.495 17.525 -19 15 C-17.02 14.67 -15.04 14.34 -13 14 C-11.68 15.65 -10.36 17.3 -9 19 C-8.34 16.36 -7.68 13.72 -7 11 C-6.01 11 -5.02 11 -4 11 C-3.505 12.485 -3.505 12.485 -3 14 C-2.67 12.68 -2.34 11.36 -2 10 C-1.34 10 -0.68 10 0 10 C0 6.7 0 3.4 0 0 Z M7 35 C7.33 35.66 7.66 36.32 8 37 C8.33 36.34 8.66 35.68 9 35 C8.34 35 7.68 35 7 35 Z M17 37 C17 37.99 17 38.98 17 40 C15.68 40 14.36 40 13 40 C13 41.32 13 42.64 13 44 C10.69 44 8.38 44 6 44 C6 44.99 6 45.98 6 47 C7.32 47 8.64 47 10 47 C10 48.32 10 49.64 10 51 C9.01 51.33 8.02 51.66 7 52 C7 52.66 7 53.32 7 54 C6.36191406 54.13277344 5.72382813 54.26554687 5.06640625 54.40234375 C3.82697266 54.66724609 3.82697266 54.66724609 2.5625 54.9375 C1.73878906 55.11152344 0.91507813 55.28554688 0.06640625 55.46484375 C-1.97661204 55.80752994 -1.97661204 55.80752994 -3 57 C-3.33 56.34 -3.66 55.68 -4 55 C-5.98 55 -7.96 55 -10 55 C-10 54.34 -10 53.68 -10 53 C-10.99 52.67 -11.98 52.34 -13 52 C-15.50853762 54.18133706 -16.61952612 55.67085353 -17 59 C-16.72949547 61.00946222 -16.40632091 63.01354224 -16 65 C-16.66 65.33 -17.32 65.66 -18 66 C-18 68.31 -18 70.62 -18 73 C-18.99 73.495 -18.99 73.495 -20 74 C-19.2575 74.61875 -19.2575 74.61875 -18.5 75.25 C-17 77 -17 77 -17 81 C-15.35 81.33 -13.7 81.66 -12 82 C-12 82.66 -12 83.32 -12 84 C-9.36315253 86.39820305 -9.36315253 86.39820305 -6 87 C-6 87.66 -6 88.32 -6 89 C-0.77269726 93.21556672 5.79222066 93.2671031 12.25 92.9375 C16.32161625 91.91959594 17.18186781 90.9579769 19.515625 87.6171875 C22.02363277 84.88477904 25.33161608 83.71502168 28.6953125 82.2734375 C31.30412048 80.83196055 32.49931999 79.55998355 34 77 C34 76.01 34 75.02 34 74 C34.66 74 35.32 74 36 74 C37.59456558 67.82105839 37.59456558 61.17894161 36 55 C35.01 55 34.02 55 33 55 C32.731875 54.113125 32.46375 53.22625 32.1875 52.3125 C31.0749365 49.2090334 29.89804222 46.68889315 28 44 C27.34 44 26.68 44 26 44 C26 43.34 26 42.68 26 42 C23.36 42 20.72 42 18 42 C18 41.01 18 40.02 18 39 C18.66 39 19.32 39 20 39 C20 38.34 20 37.68 20 37 C19.01 37 18.02 37 17 37 Z " fill="#904047" transform="translate(198,301)"/>
<path d="M0 0 C2.31 0 4.62 0 7 0 C11.20307762 15.87249188 14.53736289 31.95391776 18 48 C18.1858667 47.27635254 18.3717334 46.55270508 18.56323242 45.80712891 C24.83181545 21.43209636 24.83181545 21.43209636 27.875 10.375 C28.07762451 9.63072754 28.28024902 8.88645508 28.48901367 8.11962891 C29.87953834 3.12046166 29.87953834 3.12046166 31 2 C32.99958364 1.95919217 35.00045254 1.95745644 37 2 C39.12079942 7.4153818 40.83206403 12.76033327 42.2265625 18.40234375 C42.41971039 19.16551407 42.61285828 19.92868439 42.81185913 20.71498108 C43.42056804 23.12142181 44.02336777 25.5292811 44.625 27.9375 C45.2341766 30.37060324 45.84470898 32.80332585 46.45956421 35.23500061 C46.84027883 36.74100772 47.21768214 38.24785654 47.59146118 39.75559998 C48.23369738 43.15963448 48.23369738 43.15963448 50 46 C50.18459023 45.17980881 50.18459023 45.17980881 50.37290955 44.3430481 C51.65133033 38.66500343 52.93336645 32.98778387 54.2175293 27.31103516 C54.69665298 25.1908032 55.17484652 23.07036083 55.65209961 20.94970703 C56.33724927 17.90602038 57.02571276 14.86309985 57.71484375 11.8203125 C57.92842026 10.86818878 58.14199677 9.91606506 58.36204529 8.93508911 C58.66224327 7.61394608 58.66224327 7.61394608 58.96850586 6.26611328 C59.23164833 5.10029221 59.23164833 5.10029221 59.50010681 3.91091919 C60 2 60 2 61 0 C63.31 0 65.62 0 68 0 C65.27980095 12.42642921 62.42859456 24.81802155 59.48071289 37.19238281 C58.80010517 40.05207912 58.12363845 42.91273695 57.44726562 45.7734375 C57.01326901 47.59901735 56.57903366 49.42454047 56.14453125 51.25 C55.94350296 52.10190918 55.74247467 52.95381836 55.53535461 53.83154297 C54.11449945 59.77100109 54.11449945 59.77100109 53 62 C50.69 62 48.38 62 46 62 C41.74948788 47.39451687 37.79103972 32.73098679 34 18 C33.64172119 19.26183105 33.28344238 20.52366211 32.91430664 21.82373047 C31.58753061 26.49454808 30.25815312 31.16462188 28.92797852 35.83447266 C28.35206984 37.85770724 27.77687179 39.88114423 27.20239258 41.90478516 C26.37767219 44.80945179 25.55041901 47.71338662 24.72265625 50.6171875 C24.46533218 51.52556366 24.20800812 52.43393982 23.94288635 53.36984253 C23.58262611 54.63092331 23.58262611 54.63092331 23.21508789 55.91748047 C23.00412979 56.65916473 22.79317169 57.400849 22.57582092 58.16500854 C22 60 22 60 21 62 C18.69 62 16.38 62 14 62 C12.54949568 58.5762025 11.49510046 55.25466559 10.67138672 51.63061523 C10.43128876 50.5828038 10.1911908 49.53499237 9.94381714 48.45542908 C9.69165436 47.33447342 9.43949158 46.21351776 9.1796875 45.05859375 C8.91616486 43.8987648 8.65264221 42.73893585 8.38113403 41.54396057 C7.82610807 39.09593016 7.27316737 36.64742617 6.72216797 34.19848633 C5.87705537 30.44662476 5.02296006 26.69688678 4.16796875 22.94726562 C3.62966661 20.56783082 3.09188833 18.18827743 2.5546875 15.80859375 C2.29847626 14.68561386 2.04226501 13.56263397 1.77828979 12.40562439 C1.54449615 11.36096512 1.31070251 10.31630585 1.06982422 9.23999023 C0.86267792 8.3224144 0.65553162 7.40483856 0.44210815 6.4594574 C0 4 0 4 0 0 Z " fill="#FEFEFE" transform="translate(307,338)"/>
<path d="M0 0 C4.44857382 4.09445849 6.95646831 7.94751618 8 14 C8 16.97 8 19.94 8 23 C-1.24 23 -10.48 23 -20 23 C-18.59999495 30.79978633 -18.59999495 30.79978633 -15 37 C-10.54546739 39.75987346 -6.0802963 39.41537014 -1 39 C2.4614054 38.12899451 2.4614054 38.12899451 5 37 C5.66 38.98 6.32 40.96 7 43 C-0.22620642 46.33517219 -7.60521367 47.55012529 -15.40625 45.30859375 C-21.09147369 42.77357796 -23.77896007 39.06587199 -26.078125 33.29296875 C-28.37182927 25.09977935 -28.42582991 14.42627478 -24.33984375 6.8359375 C-18.59587507 -1.03480675 -9.23127721 -5.44408656 0 0 Z M-18 9 C-18.66 11.97 -19.32 14.94 -20 18 C-13.07 18 -6.14 18 1 18 C0.30153385 10.21555754 0.30153385 10.21555754 -4 5 C-9.85732111 2.07133945 -13.92597613 4.46301887 -18 9 Z " fill="#FEFEFE" transform="translate(472,355)"/>
<path d="M0 0 C3.29643985 2.59506967 5.53455755 5.08081229 7 9 C7.1688051 11.86278931 7.23274535 14.62435954 7.1953125 17.484375 C7.1924826 18.29996887 7.18965271 19.11556274 7.18673706 19.95587158 C7.17556558 22.55406528 7.15046675 25.15191095 7.125 27.75 C7.11496627 29.51431793 7.10584111 31.27864128 7.09765625 33.04296875 C7.07563619 37.36211273 7.04112733 41.68099741 7 46 C4.69 46 2.38 46 0 46 C-0.01981934 44.96069336 -0.03963867 43.92138672 -0.06005859 42.85058594 C-0.13622124 38.98885164 -0.224922 35.1274889 -0.31738281 31.26611328 C-0.35562857 29.59594059 -0.39048915 27.92568677 -0.421875 26.25537109 C-0.46762161 23.85224443 -0.52559925 21.44967416 -0.5859375 19.046875 C-0.59748871 18.30193787 -0.60903992 17.55700073 -0.62094116 16.78948975 C-0.72204915 11.55624152 -0.72204915 11.55624152 -3 7 C-6.34555867 6.13263294 -8.87231148 5.71807787 -12.25 6.5625 C-15.78599409 9.46706657 -16.90267566 13.18546506 -17.43237305 17.61865234 C-17.45855713 18.92785645 -17.48474121 20.23706055 -17.51171875 21.5859375 C-17.52966995 22.28772125 -17.54762115 22.989505 -17.56611633 23.71255493 C-17.61989047 25.93331053 -17.65400693 28.1538554 -17.6875 30.375 C-17.72070237 31.88935204 -17.75519471 33.40367638 -17.79101562 34.91796875 C-17.87559581 38.61177674 -17.9425635 42.30565879 -18 46 C-20.31 46 -22.62 46 -25 46 C-25 30.82 -25 15.64 -25 0 C-23.02 0 -21.04 0 -19 0 C-18.67 1.32 -18.34 2.64 -18 4 C-17.2575 3.360625 -16.515 2.72125 -15.75 2.0625 C-10.81534397 -1.63849202 -5.85406115 -1.53669105 0 0 Z " fill="#FEFEFE" transform="translate(276,354)"/>
<path d="M0 0 C3.4804176 2.39762101 5.25870413 5.07566935 6.8125 8.9375 C7.30931328 11.88263678 7.28269061 14.73495652 7.203125 17.71484375 C7.19746521 18.52619278 7.19180542 19.33754181 7.18597412 20.17347717 C7.1637492 22.7412755 7.11358235 25.30763015 7.0625 27.875 C7.0424169 29.62563076 7.02416931 31.37628359 7.0078125 33.12695312 C6.96393044 37.39768378 6.89500275 41.66734793 6.8125 45.9375 C4.5025 45.9375 2.1925 45.9375 -0.1875 45.9375 C-0.20731934 44.89819336 -0.22713867 43.85888672 -0.24755859 42.78808594 C-0.32372124 38.92635164 -0.412422 35.0649889 -0.50488281 31.20361328 C-0.54312857 29.53344059 -0.57798915 27.86318677 -0.609375 26.19287109 C-0.65512161 23.78974443 -0.71309925 21.38717416 -0.7734375 18.984375 C-0.78498871 18.23943787 -0.79653992 17.49450073 -0.80844116 16.72698975 C-0.91337462 13.02799211 -1.01416101 10.02130486 -3.1875 6.9375 C-6.07611709 5.49319145 -7.98397701 5.56061494 -11.1875 5.9375 C-15.58731264 9.03736799 -16.72479993 12.02067374 -17.78125 17.18920898 C-18.58071297 22.59759518 -18.6675088 28.04168554 -18.8125 33.5 C-18.85117187 34.69947266 -18.88984375 35.89894531 -18.9296875 37.13476562 C-19.02320459 40.06886425 -19.10895635 43.00296884 -19.1875 45.9375 C-21.1675 45.9375 -23.1475 45.9375 -25.1875 45.9375 C-25.1875 30.7575 -25.1875 15.5775 -25.1875 -0.0625 C-23.2075 -0.0625 -21.2275 -0.0625 -19.1875 -0.0625 C-18.8575 1.2575 -18.5275 2.5775 -18.1875 3.9375 C-17.424375 3.298125 -16.66125 2.65875 -15.875 2 C-10.87619792 -1.83628997 -5.90387326 -1.96795775 0 0 Z " fill="#FEFEFE" transform="translate(428.1875,354.0625)"/>
<path d="M0 0 C0 0.99 0 1.98 0 3 C0.66 3 1.32 3 2 3 C2 3.66 2 4.32 2 5 C2.68449219 4.83628906 3.36898437 4.67257812 4.07421875 4.50390625 C7.3743278 3.93552966 10.46554069 3.90369233 13.8125 3.9375 C14.97394531 3.94652344 16.13539063 3.95554687 17.33203125 3.96484375 C18.21246094 3.97644531 19.09289062 3.98804688 20 4 C16.91190305 5.76462683 15.76687864 6 12 6 C12 6.66 12 7.32 12 8 C11.34 8 10.68 8 10 8 C10.96776098 11.79547921 10.96776098 11.79547921 13 15 C13.16796875 16.9609375 13.16796875 16.9609375 13.1875 19.375 C13.20167969 20.16648437 13.21585938 20.95796875 13.23046875 21.7734375 C13 24 13 24 11 27 C6.76001646 27.39259107 3.63266059 27.32490278 0 25 C0 24.34 0 23.68 0 23 C-2.475 22.01 -2.475 22.01 -5 21 C-5 19.68 -5 18.36 -5 17 C-5.66 17 -6.32 17 -7 17 C-7.33 17.99 -7.66 18.98 -8 20 C-8.66 19.34 -9.32 18.68 -10 18 C-10 17.01 -10 16.02 -10 15 C-10.66 14.67 -11.32 14.34 -12 14 C-12.66666667 12.66666667 -13.33333333 11.33333333 -14 10 C-14.66 9.67 -15.32 9.34 -16 9 C-16 8.34 -16 7.68 -16 7 C-14.75336669 6.49166409 -13.50250613 5.99368855 -12.25 5.5 C-11.55390625 5.2215625 -10.8578125 4.943125 -10.140625 4.65625 C-8 4 -8 4 -4 4 C-4 3.01 -4 2.02 -4 1 C-2 0 -2 0 0 0 Z " fill="#610E14" transform="translate(190,328)"/>
<path d="M0 0 C0.33 0.66 0.66 1.32 1 2 C1.99 2 2.98 2 4 2 C5.2 10 5.2 10 4 14 C4 14.969375 4 15.93875 4 16.9375 C4 21.51387705 3.22303264 24.99854125 1 29 C1.474375 29.4125 1.94875 29.825 2.4375 30.25 C4.56216423 32.62962394 4.82178034 34.90062089 5.32421875 38 C6.08919567 42.21148582 6.42237414 43.5874101 10.0625 46.1875 C11.031875 46.785625 12.00125 47.38375 13 48 C13.875 50.75 13.875 50.75 14 53 C10.28400809 53.20086443 9.22791555 53.1519437 6 51 C6 50.34 6 49.68 6 49 C5.4225 48.773125 4.845 48.54625 4.25 48.3125 C1.3611324 46.62732723 -0.1512471 44.77312935 -2 42 C-2 40.68 -2 39.36 -2 38 C-2.66 38 -3.32 38 -4 38 C-6.25998595 34.40537669 -6.20868087 31.43404325 -6.125 27.25 C-6.09792969 25.49429687 -6.09792969 25.49429687 -6.0703125 23.703125 C-6.04710937 22.81109375 -6.02390625 21.9190625 -6 21 C-6.99 21 -7.98 21 -9 21 C-8 16 -7 11 -6 6 C-5.36578125 5.88785156 -4.7315625 5.77570313 -4.078125 5.66015625 C-3.39234375 5.44230469 -2.7065625 5.22445313 -2 5 C-0.70339566 2.50965614 -0.70339566 2.50965614 0 0 Z " fill="#9C5056" transform="translate(178,346)"/>
<path d="M0 0 C1.32 0.66 2.64 1.32 4 2 C5.37734735 21.53155059 5.37734735 21.53155059 0.4375 28.375 C-1.78125 30.8671875 -1.78125 30.8671875 -4 33 C-4.6084375 33.62132812 -5.216875 34.24265625 -5.84375 34.8828125 C-12.15795698 40.82390725 -19.43972254 43.0372186 -28 43 C-31.72392847 42.55056036 -35.34858169 41.85160874 -39 41 C-39.72316406 40.85175781 -40.44632813 40.70351563 -41.19140625 40.55078125 C-43.83132975 39.74683047 -45.13636078 37.98387401 -47 36 C-47.99 35.34 -48.98 34.68 -50 34 C-50.6875 30.375 -50.6875 30.375 -51 27 C-50.01 27 -49.02 27 -48 27 C-48 27.66 -48 28.32 -48 29 C-47.38125 29.309375 -46.7625 29.61875 -46.125 29.9375 C-44.75 30.625 -43.375 31.3125 -42 32 C-42 32.66 -42 33.32 -42 34 C-35.20551934 37.28765193 -27.26139985 37.81534996 -20 36 C-17.75302516 33.49519486 -17.75302516 33.49519486 -16.484375 31.609375 C-14.53506512 29.49591271 -12.49206284 28.66481988 -9.875 27.5 C-6.15909694 25.80240738 -5.16508882 25.25734434 -2.875 21.6875 C-2.58625 20.800625 -2.2975 19.91375 -2 19 C-1.34 19 -0.68 19 0 19 C0 12.73 0 6.46 0 0 Z " fill="#DDC9CA" transform="translate(234,356)"/>
<path d="M0 0 C0.66 0 1.32 0 2 0 C2 1.65 2 3.3 2 5 C3.98 5 5.96 5 8 5 C7.73958333 7.01822917 7.47916667 9.03645833 7.21875 11.0546875 C6.9627515 13.00498344 6.9627515 13.00498344 7 15 C10.26460973 13.19587357 11.88929795 12.16605307 14 9 C16.97 9.495 16.97 9.495 20 10 C21.15837626 14.05431692 20.83691257 16.21812119 19 20 C18.34 20 17.68 20 17 20 C17.66 21.32 18.32 22.64 19 24 C22.3 24 25.6 24 29 24 C29 24.99 29 25.98 29 27 C28.34 27 27.68 27 27 27 C27 28.98 27 30.96 27 33 C24.69 32.67 22.38 32.34 20 32 C19.505 29.525 19.505 29.525 19 27 C16.69 27.66 14.38 28.32 12 29 C11.67 28.01 11.34 27.02 11 26 C11.66 25.67 12.32 25.34 13 25 C13 23.02 13 21.04 13 19 C9.27385847 20.11854586 9.27385847 20.11854586 7 23 C5.88625 22.835 4.7725 22.67 3.625 22.5 C0.27967967 21.9544542 0.27967967 21.9544542 -2 22 C-2.66 22.99 -3.32 23.98 -4 25 C-4.66 25 -5.32 25 -6 25 C-6 24.01 -6 23.02 -6 22 C-7.32 21.67 -8.64 21.34 -10 21 C-9.01 17.7 -8.02 14.4 -7 11 C-6.01 11 -5.02 11 -4 11 C-3.67 11.99 -3.34 12.98 -3 14 C-2.67 12.68 -2.34 11.36 -2 10 C-1.34 10 -0.68 10 0 10 C0 6.7 0 3.4 0 0 Z " fill="#BB8186" transform="translate(198,301)"/>
<path d="M0 0 C1.9375 0.8125 1.9375 0.8125 4 2 C4.495 3.485 4.495 3.485 5 5 C5.66 5 6.32 5 7 5 C7 6.32 7 7.64 7 9 C7.99 9 8.98 9 10 9 C12 12 12 12 12 16 C12.99 16 13.98 16 15 16 C15.11795981 19.45803731 15.18782752 22.91554557 15.25 26.375 C15.28351563 27.34050781 15.31703125 28.30601562 15.3515625 29.30078125 C15.48734696 39.4167238 12.68414596 46.97063049 5.72265625 54.31640625 C-0.77450455 60.66623914 -6.56067083 63.36989976 -15.578125 63.41015625 C-16.45984375 63.39855469 -17.3415625 63.38695312 -18.25 63.375 C-19.59578125 63.39240234 -19.59578125 63.39240234 -20.96875 63.41015625 C-21.82984375 63.40628906 -22.6909375 63.40242188 -23.578125 63.3984375 C-24.35575195 63.39505371 -25.13337891 63.39166992 -25.93457031 63.38818359 C-28.51175481 62.90381913 -29.42365157 62.06133033 -31 60 C-31 59.34 -31 58.68 -31 58 C-29.89205078 58.14308594 -29.89205078 58.14308594 -28.76171875 58.2890625 C-19.03289864 59.35218643 -10.05835089 59.24213048 -1.77734375 53.484375 C1.23085893 50.9720299 3.68854251 48.1560285 6 45 C6.7115625 44.15050781 7.423125 43.30101562 8.15625 42.42578125 C10.68634322 37.72473939 10.44438079 33.86580502 10.25 28.625 C10.23195312 27.69816406 10.21390625 26.77132813 10.1953125 25.81640625 C10.14844197 23.54318565 10.08285525 21.27214593 10 19 C9.20980469 18.773125 8.41960937 18.54625 7.60546875 18.3125 C5 17 5 17 3.92578125 14.6875 C3.72339844 13.800625 3.52101562 12.91375 3.3125 12 C2.45932317 8.07616663 2.45932317 8.07616663 0 5 C-0.125 2.375 -0.125 2.375 0 0 Z " fill="#913E45" transform="translate(227,339)"/>
<path d="M0 0 C2.76276177 0.52268466 5.3260876 1.10869587 8 2 C10.33006911 2.35543427 12.66327016 2.6913753 15 3 C15.33 4.98 15.66 6.96 16 9 C16.66386719 8.98839844 17.32773438 8.97679687 18.01171875 8.96484375 C26.78207381 8.87521968 26.78207381 8.87521968 31 10 C31 10.99 31 11.98 31 13 C32.98 13.66 34.96 14.32 37 15 C37 15.33 37 15.66 37 16 C35.35 16 33.7 16 32 16 C32 15.34 32 14.68 32 14 C31.34 14 30.68 14 30 14 C30 13.01 30 12.02 30 11 C28.68 11.33 27.36 11.66 26 12 C26 12.99 26 13.98 26 15 C24.37604003 15.50336767 22.75079459 16.00258976 21.125 16.5 C20.22007812 16.7784375 19.31515625 17.056875 18.3828125 17.34375 C16 18 16 18 14 18 C14 18.66 14 19.32 14 20 C14.61359375 20.23460937 15.2271875 20.46921875 15.859375 20.7109375 C18.5630421 22.3390582 19.09053534 23.72633836 20.25 26.625 C20.75273437 27.85089844 20.75273437 27.85089844 21.265625 29.1015625 C21.62914062 30.04128906 21.62914062 30.04128906 22 31 C20.68 30.67 19.36 30.34 18 30 C17.34 31.32 16.68 32.64 16 34 C13.69 34 11.38 34 9 34 C9 32.68 9 31.36 9 30 C9.639375 29.87625 10.27875 29.7525 10.9375 29.625 C11.618125 29.41875 12.29875 29.2125 13 29 C13.33 28.34 13.66 27.68 14 27 C14.66 27 15.32 27 16 27 C16 26.01 16 25.02 16 24 C11.545 23.01 11.545 23.01 7 22 C7.33 20.68 7.66 19.36 8 18 C9.32 18 10.64 18 12 18 C12 17.34 12 16.68 12 16 C11.34 16 10.68 16 10 16 C10 15.34 10 14.68 10 14 C9.34 14 8.68 14 8 14 C7.67 12.02 7.34 10.04 7 8 C6.34 8 5.68 8 5 8 C4.34 7.01 3.68 6.02 3 5 C2.01 4.67 1.02 4.34 0 4 C0 2.68 0 1.36 0 0 Z " fill="#AA5D64" transform="translate(160,317)"/>
<path d="M0 0 C2.31 0 4.62 0 7 0 C7 15.18 7 30.36 7 46 C4.69 46 2.38 46 0 46 C0 30.82 0 15.64 0 0 Z " fill="#FEFEFE" transform="translate(382,354)"/>
<path d="M0 0 C1.41601562 2.68554688 1.41601562 2.68554688 2.83203125 5.37109375 C3.99019799 7.32267987 3.99019799 7.32267987 7 8 C7 8.99 7 9.98 7 11 C7.66 11 8.32 11 9 11 C9.28875 10.360625 9.5775 9.72125 9.875 9.0625 C11 7 11 7 13 6 C13 6.66 13 7.32 13 8 C13.66 8 14.32 8 15 8 C15 6.35 15 4.7 15 3 C15.33 3 15.66 3 16 3 C16.33 4.65 16.66 6.3 17 8 C17.99 8.33 18.98 8.66 20 9 C20.33 8.01 20.66 7.02 21 6 C23.5625 4.8125 23.5625 4.8125 26 4 C27 5 27 5 27.1875 7.8125 C27.00782439 10.86698544 26.57664404 12.43795344 25 15 C25.598125 14.67 26.19625 14.34 26.8125 14 C29 13 29 13 32 13 C32 14.32 32 15.64 32 17 C28.22923111 17.05799124 24.45857666 17.09359306 20.6875 17.125 C19.61564453 17.14175781 18.54378906 17.15851563 17.43945312 17.17578125 C16.41142578 17.18222656 15.38339844 17.18867188 14.32421875 17.1953125 C13.37635498 17.20578613 12.42849121 17.21625977 11.4519043 17.22705078 C9 17 9 17 6 15 C6 14.01 6 13.02 6 12 C1.05 11.67 -3.9 11.34 -9 11 C-9.33 8.69 -9.66 6.38 -10 4 C-7.525 4.99 -7.525 4.99 -5 6 C-5.33 4.35 -5.66 2.7 -6 1 C-4 0 -4 0 0 0 Z " fill="#B26E74" transform="translate(185,315)"/>
<path d="M0 0 C-0.66 0 -1.32 0 -2 0 C-1.03223902 3.79547921 -1.03223902 3.79547921 1 7 C1.16796875 8.9609375 1.16796875 8.9609375 1.1875 11.375 C1.20167969 12.16648437 1.21585938 12.95796875 1.23046875 13.7734375 C1 16 1 16 -1 19 C-5.23998354 19.39259107 -8.36733941 19.32490278 -12 17 C-12 16.34 -12 15.68 -12 15 C-14.475 14.01 -14.475 14.01 -17 13 C-17 11.68 -17 10.36 -17 9 C-17.66 9 -18.32 9 -19 9 C-19.33 9.99 -19.66 10.98 -20 12 C-20.66 11.34 -21.32 10.68 -22 10 C-22 9.01 -22 8.02 -22 7 C-22.66 6.67 -23.32 6.34 -24 6 C-23.34 5.34 -22.68 4.68 -22 4 C-21.67 5.32 -21.34 6.64 -21 8 C-19.5199159 7.88637738 -18.04089926 7.75877092 -16.5625 7.625 C-15.73878906 7.55539062 -14.91507813 7.48578125 -14.06640625 7.4140625 C-13.04353516 7.20910156 -13.04353516 7.20910156 -12 7 C-11.67 6.34 -11.34 5.68 -11 5 C-8.4375 4.375 -8.4375 4.375 -6 4 C-6 2.68 -6 1.36 -6 0 C-3 -1 -3 -1 0 0 Z " fill="#751B22" transform="translate(202,336)"/>
<path d="M0 0 C3.78706732 0 7.26513121 0.4254048 11 1 C11.495 2.98 11.495 2.98 12 5 C10.68 5 9.36 5 8 5 C8 6.32 8 7.64 8 9 C5.69 9 3.38 9 1 9 C1 9.99 1 10.98 1 12 C2.32 12 3.64 12 5 12 C5 16 5 16 3.85546875 17.61328125 C1.47251552 19.39422525 -0.8757521 20.22819778 -3.6875 21.1875 C-4.68136719 21.53167969 -5.67523438 21.87585938 -6.69921875 22.23046875 C-7.45847656 22.48441406 -8.21773437 22.73835938 -9 23 C-9 22.01 -9 21.02 -9 20 C-9.61875 20.185625 -10.2375 20.37125 -10.875 20.5625 C-13 21 -13 21 -15 20 C-15 19.34 -15 18.68 -15 18 C-15.804375 18.020625 -16.60875 18.04125 -17.4375 18.0625 C-20 18 -20 18 -21 17 C-20.82364548 14.30917128 -20.38164079 11.67148554 -20 9 C-19.34 9 -18.68 9 -18 9 C-17.9175 9.61875 -17.835 10.2375 -17.75 10.875 C-17.20005805 13.1765144 -17.20005805 13.1765144 -15 14.125 C-14.01 14.558125 -14.01 14.558125 -13 15 C-12.67 15.66 -12.34 16.32 -12 17 C-8.52674819 18.1577506 -5.63932552 18.06866652 -2 18 C0.05167757 13.89664486 -0.69314656 8.44221115 -1.625 4.0625 C-1.74875 3.381875 -1.8725 2.70125 -2 2 C-1.34 1.34 -0.68 0.68 0 0 Z " fill="#B5757A" transform="translate(203,336)"/>
<path d="M0 0 C1.9375 0.8125 1.9375 0.8125 4 2 C4.33 2.99 4.66 3.98 5 5 C5.66 5 6.32 5 7 5 C7 6.32 7 7.64 7 9 C7.99 9 8.98 9 10 9 C12 12 12 12 12 16 C12.99 16 13.98 16 15 16 C15.08681476 19.62484999 15.14032721 23.24943443 15.1875 26.875 C15.22520508 28.42380859 15.22520508 28.42380859 15.26367188 30.00390625 C15.27817383 31.48310547 15.27817383 31.48310547 15.29296875 32.9921875 C15.31653442 34.35899658 15.31653442 34.35899658 15.34057617 35.75341797 C15.22818604 36.49479004 15.1157959 37.23616211 15 38 C14.01 38.66 13.02 39.32 12 40 C11.95101562 38.91460937 11.90203125 37.82921875 11.8515625 36.7109375 C11.77648014 35.26560216 11.70093472 33.82029081 11.625 32.375 C11.5940625 31.66214844 11.563125 30.94929688 11.53125 30.21484375 C11.29248918 25.8773556 10.89838497 21.98048462 9 18 C7.67650601 17.62952388 6.34244734 17.29448944 5 17 C4.0234375 14.78515625 4.0234375 14.78515625 3.375 12.0625 C2.47941667 8.10799572 2.47941667 8.10799572 0 5 C-0.125 2.375 -0.125 2.375 0 0 Z " fill="#872C34" transform="translate(227,339)"/>
<path d="M0 0 C0.99 0.33 1.98 0.66 3 1 C3.70774724 2.99027103 3.98686863 4.91899682 4.32421875 7 C5.08919567 11.21148582 5.42237414 12.5874101 9.0625 15.1875 C10.5165625 16.0846875 10.5165625 16.0846875 12 17 C12.875 19.75 12.875 19.75 13 22 C9.28400809 22.20086443 8.22791555 22.1519437 5 20 C5 19.34 5 18.68 5 18 C4.4225 17.773125 3.845 17.54625 3.25 17.3125 C0.19343124 15.52950156 -1.22432699 14.09098636 -3 11 C-3.03616977 7.92040268 -2.6042289 5.01457678 -2 2 C-1.34 2 -0.68 2 0 2 C0 1.34 0 0.68 0 0 Z " fill="#9A4B52" transform="translate(179,377)"/>
<path d="M0 0 C0.66 1.32 1.32 2.64 2 4 C3.65 4 5.3 4 7 4 C7 4.66 7 5.32 7 6 C12.66159804 7.19138158 12.66159804 7.19138158 18 5.5625 C18.66 5.046875 19.32 4.53125 20 4 C19.67 6.97 19.34 9.94 19 13 C20.32 12.67 21.64 12.34 23 12 C22.67 12.99 22.34 13.98 22 15 C14.57142857 15.28571429 14.57142857 15.28571429 11 13 C11 12.34 11 11.68 11 11 C8.525 10.01 8.525 10.01 6 9 C6 7.68 6 6.36 6 5 C5.34 5 4.68 5 4 5 C3.67 5.99 3.34 6.98 3 8 C2.34 7.34 1.68 6.68 1 6 C1 5.01 1 4.02 1 3 C0.34 2.67 -0.32 2.34 -1 2 C-0.67 1.34 -0.34 0.68 0 0 Z " fill="#8B2D35" transform="translate(179,340)"/>
<path d="M0 0 C0.33 0.66 0.66 1.32 1 2 C1.99 2 2.98 2 4 2 C4.93402724 7.41735797 5.20808081 10.80451575 3 16 C0.23723823 15.47731534 -2.3260876 14.89130413 -5 14 C-4.67 11.03 -4.34 8.06 -4 5 C-3.34 5 -2.68 5 -2 5 C-1.34 3.35 -0.68 1.7 0 0 Z " fill="#8C353C" transform="translate(178,346)"/>
<path d="M0 0 C1.98 0 3.96 0 6 0 C6 0.66 6 1.32 6 2 C6.92039063 2.35191406 6.92039063 2.35191406 7.859375 2.7109375 C10.5630421 4.3390582 11.09053534 5.72633836 12.25 8.625 C12.58515625 9.44226563 12.9203125 10.25953125 13.265625 11.1015625 C13.62914062 12.04128906 13.62914062 12.04128906 14 13 C12.68 12.67 11.36 12.34 10 12 C9.34 13.32 8.68 14.64 8 16 C5.69 16 3.38 16 1 16 C1 14.68 1 13.36 1 12 C1.639375 11.87625 2.27875 11.7525 2.9375 11.625 C3.618125 11.41875 4.29875 11.2125 5 11 C5.33 10.34 5.66 9.68 6 9 C6.66 9 7.32 9 8 9 C8 8.01 8 7.02 8 6 C3.545 5.01 3.545 5.01 -1 4 C-0.67 2.68 -0.34 1.36 0 0 Z " fill="#A25B61" transform="translate(168,335)"/>
<path d="M0 0 C8.26747851 -0.23658921 15.92046224 0.18655665 24 2 C24.33 3.65 24.66 5.3 25 7 C18.4 6.67 11.8 6.34 5 6 C4.67 7.65 4.34 9.3 4 11 C3.34 10.67 2.68 10.34 2 10 C2 8.35 2 6.7 2 5 C2.66 5 3.32 5 4 5 C4 4.34 4 3.68 4 3 C5.32 2.67 6.64 2.34 8 2 C5.36 1.67 2.72 1.34 0 1 C0 0.67 0 0.34 0 0 Z " fill="#94444B" transform="translate(198,331)"/>
<path d="M0 0 C0.66 0 1.32 0 2 0 C2 1.65 2 3.3 2 5 C3.98 5 5.96 5 8 5 C7.52060632 9.71403788 7.03165952 13.66579301 5 18 C4.01 17.01 3.02 16.02 2 15 C1.67 15.66 1.34 16.32 1 17 C-0.32 17 -1.64 17 -3 17 C-2.67 14.69 -2.34 12.38 -2 10 C-1.34 10 -0.68 10 0 10 C0 6.7 0 3.4 0 0 Z " fill="#C29094" transform="translate(198,301)"/>
<path d="M0 0 C0.66 0 1.32 0 2 0 C1.67 2.64 1.34 5.28 1 8 C1.763125 8.144375 2.52625 8.28875 3.3125 8.4375 C6 9 6 9 9 10 C9.33 9.34 9.66 8.68 10 8 C10 9.98 10 11.96 10 14 C8.02 14.33 6.04 14.66 4 15 C3.67 14.01 3.34 13.02 3 12 C2.01 12 1.02 12 0 12 C0 12.66 0 13.32 0 14 C0.99 14.33 1.98 14.66 3 15 C2.34 15 1.68 15 1 15 C0.67 15.66 0.34 16.32 0 17 C0 16.34 0 15.68 0 15 C-0.99 15 -1.98 15 -3 15 C-2 10 -1 5 0 0 Z " fill="#9F5259" transform="translate(172,352)"/>
<path d="M0 0 C2.5 0.875 2.5 0.875 3.9375 3.1875 C4.5 5.875 4.5 5.875 3.625 8.1875 C3.068125 9.0228125 3.068125 9.0228125 2.5 9.875 C-0.375 10 -0.375 10 -3.5 9.875 C-4.16 9.215 -4.82 8.555 -5.5 7.875 C-5.25 4.3125 -5.25 4.3125 -4.5 0.875 C-2.5 -0.125 -2.5 -0.125 0 0 Z " fill="#FEFEFE" transform="translate(386.5,336.125)"/>
<path d="M0 0 C-0.66 0 -1.32 0 -2 0 C-1.835 0.515625 -1.67 1.03125 -1.5 1.5625 C-0.84951 4.73363876 -0.9379266 7.77218334 -1 11 C-2.32 11 -3.64 11 -5 11 C-5.12375 10.071875 -5.12375 10.071875 -5.25 9.125 C-5.80583476 6.83911206 -5.80583476 6.83911206 -7.9375 5.8125 C-8.618125 5.544375 -9.29875 5.27625 -10 5 C-10.66 4.67 -11.32 4.34 -12 4 C-12 3.34 -12 2.68 -12 2 C-10.75579353 1.4654744 -9.50429064 0.94791389 -8.25 0.4375 C-7.55390625 0.14746094 -6.8578125 -0.14257812 -6.140625 -0.44140625 C-3.69987216 -1.07831803 -2.3596345 -0.80248831 0 0 Z " fill="#73151D" transform="translate(186,333)"/>
<path d="M0 0 C0.66 0 1.32 0 2 0 C2.0825 0.61875 2.165 1.2375 2.25 1.875 C2.79994195 4.1765144 2.79994195 4.1765144 5 5.125 C5.66 5.41375 6.32 5.7025 7 6 C7.33 6.66 7.66 7.32 8 8 C9.88764903 8.68472665 9.88764903 8.68472665 12.0625 9.125 C13.16271484 9.37636719 13.16271484 9.37636719 14.28515625 9.6328125 C14.85105469 9.75398438 15.41695312 9.87515625 16 10 C16 10.66 16 11.32 16 12 C14.35 12.66 12.7 13.32 11 14 C11 13.01 11 12.02 11 11 C10.38125 11.185625 9.7625 11.37125 9.125 11.5625 C7 12 7 12 5 11 C5 10.34 5 9.68 5 9 C4.195625 9.020625 3.39125 9.04125 2.5625 9.0625 C0 9 0 9 -1 8 C-0.82364548 5.30917128 -0.38164079 2.67148554 0 0 Z " fill="#A86369" transform="translate(183,345)"/>
<path d="M0 0 C0.33 0 0.66 0 1 0 C1.06058594 1.04800781 1.12117187 2.09601563 1.18359375 3.17578125 C1.26801738 4.55470048 1.35266447 5.93360605 1.4375 7.3125 C1.47681641 8.00279297 1.51613281 8.69308594 1.55664062 9.40429688 C1.74927415 12.47161535 2.02322717 15.06968152 3 18 C2.22265625 20.04296875 2.22265625 20.04296875 1.0625 22.1875 C0.49208984 23.26064453 0.49208984 23.26064453 -0.08984375 24.35546875 C-0.39019531 24.89816406 -0.69054687 25.44085938 -1 26 C-3.475 25.01 -3.475 25.01 -6 24 C-4.32297552 19.3559322 -4.32297552 19.3559322 -2.46875 17.3125 C-0.42311122 14.09170703 -0.43515084 10.95755971 -0.3125 7.25 C-0.27833984 6.55261719 -0.24417969 5.85523438 -0.20898438 5.13671875 C-0.12691705 3.42502892 -0.06177081 1.7125424 0 0 Z " fill="#934249" transform="translate(238,363)"/>
<path d="M0 0 C2.31 0.66 4.62 1.32 7 2 C7.12375 2.928125 7.12375 2.928125 7.25 3.875 C7.4975 4.57625 7.745 5.2775 8 6 C8.97453125 6.4021875 8.97453125 6.4021875 9.96875 6.8125 C12 8 12 8 12.828125 10.3828125 C12.96734375 11.28773438 13.1065625 12.19265625 13.25 13.125 C13.39953125 14.03507812 13.5490625 14.94515625 13.703125 15.8828125 C13.80109375 16.58148438 13.8990625 17.28015625 14 18 C12.15492566 15.63069841 10.77056512 13.53195284 9.4375 10.8125 C8.30124189 7.90358047 8.30124189 7.90358047 6 7 C6 6.34 6 5.68 6 5 C3.36 5 0.72 5 -2 5 C-2 4.01 -2 3.02 -2 2 C-1.34 2 -0.68 2 0 2 C0 1.34 0 0.68 0 0 Z " fill="#A75D64" transform="translate(218,338)"/>
<path d="M0 0 C2.76276177 0.52268466 5.3260876 1.10869587 8 2 C9.66362417 2.34820041 11.32995171 2.68404492 13 3 C12.01 3.495 12.01 3.495 11 4 C11.33 5.65 11.66 7.3 12 9 C11.34 8.67 10.68 8.34 10 8 C10 7.34 10 6.68 10 6 C9.34 6 8.68 6 8 6 C7.67 7.32 7.34 8.64 7 10 C7 9.34 7 8.68 7 8 C6.34 8 5.68 8 5 8 C4.34 7.01 3.68 6.02 3 5 C2.01 4.67 1.02 4.34 0 4 C0 2.68 0 1.36 0 0 Z " fill="#BC8489" transform="translate(160,317)"/>
<path d="M0 0 C0.99 0.33 1.98 0.66 3 1 C3.33 3.64 3.66 6.28 4 9 C3.67 8.01 3.34 7.02 3 6 C2.34 6 1.68 6 1 6 C1.309375 7.1446875 1.309375 7.1446875 1.625 8.3125 C2 11 2 11 0 14 C-1.51953125 12.79296875 -1.51953125 12.79296875 -3 11 C-3.07421875 8.73828125 -3.07421875 8.73828125 -2.6875 6.3125 C-2.56761719 5.50425781 -2.44773438 4.69601562 -2.32421875 3.86328125 C-2.21722656 3.24839844 -2.11023438 2.63351562 -2 2 C-1.34 2 -0.68 2 0 2 C0 1.34 0 0.68 0 0 Z " fill="#AA6A70" transform="translate(179,377)"/>
<path d="M0 0 C0.33 1.32 0.66 2.64 1 4 C2.65 4 4.3 4 6 4 C5.67 6.31 5.34 8.62 5 11 C3.68 10.67 2.36 10.34 1 10 C1 9.01 1 8.02 1 7 C0.34 7 -0.32 7 -1 7 C-1 6.01 -1 5.02 -1 4 C-1.66 3.67 -2.32 3.34 -3 3 C-3 2.34 -3 1.68 -3 1 C-2.01 0.67 -1.02 0.34 0 0 Z " fill="#8A353C" transform="translate(175,363)"/>
<path d="M0 0 C4 4 4 4 4.49609375 7.1640625 C4.47675781 8.30617188 4.45742187 9.44828125 4.4375 10.625 C4.43621094 11.77226562 4.43492187 12.91953125 4.43359375 14.1015625 C4.29050781 15.05804688 4.14742187 16.01453125 4 17 C3.01 17.66 2.02 18.32 1 19 C0.67 12.73 0.34 6.46 0 0 Z " fill="#8F3840" transform="translate(238,360)"/>
<path d="M0 0 C1.9375 0.8125 1.9375 0.8125 4 2 C4.33 2.99 4.66 3.98 5 5 C5.66 5 6.32 5 7 5 C7 6.32 7 7.64 7 9 C7.66 9 8.32 9 9 9 C9 9.99 9 10.98 9 12 C8.01 12.33 7.02 12.66 6 13 C6 11.68 6 10.36 6 9 C5.34 9 4.68 9 4 9 C4 8.34 4 7.68 4 7 C2.68 6.34 1.36 5.68 0 5 C0 3.35 0 1.7 0 0 Z " fill="#781B23" transform="translate(227,339)"/>
<path d="M0 0 C2.97 0.495 2.97 0.495 6 1 C6 1.99 6 2.98 6 4 C7.98 4.66 9.96 5.32 12 6 C12 6.33 12 6.66 12 7 C10.35 7 8.7 7 7 7 C7 6.34 7 5.68 7 5 C6.34 5 5.68 5 5 5 C5 4.01 5 3.02 5 2 C3.68 2.33 2.36 2.66 1 3 C1 3.99 1 4.98 1 6 C-0.62212059 6.52973311 -2.24781584 7.04853107 -3.875 7.5625 C-4.77992188 7.85253906 -5.68484375 8.14257812 -6.6171875 8.44140625 C-9 9 -9 9 -11 8 C-10.278125 7.731875 -9.55625 7.46375 -8.8125 7.1875 C-5.99052179 5.99599809 -3.51659576 4.74763594 -1 3 C-0.67 2.01 -0.34 1.02 0 0 Z " fill="#974048" transform="translate(185,326)"/>
<path d="M0 0 C0.66 0 1.32 0 2 0 C2.433125 1.2065625 2.433125 1.2065625 2.875 2.4375 C3.73262568 5.1326468 3.73262568 5.1326468 6 6 C6 6.66 6 7.32 6 8 C6.66 8 7.32 8 8 8 C7.34 9.32 6.68 10.64 6 12 C5.34 12 4.68 12 4 12 C4 11.34 4 10.68 4 10 C3.34 10 2.68 10 2 10 C2 9.34 2 8.68 2 8 C1.34 8 0.68 8 0 8 C0 5.36 0 2.72 0 0 Z " fill="#B06D73" transform="translate(168,323)"/>
<path d="M0 0 C0.99 0.33 1.98 0.66 3 1 C3 3.64 3 6.28 3 9 C1.02 9.33 -0.96 9.66 -3 10 C-3.33 7.69 -3.66 5.38 -4 3 C-1.525 3.99 -1.525 3.99 1 5 C0.67 3.35 0.34 1.7 0 0 Z " fill="#BA8085" transform="translate(179,316)"/>
<path d="M0 0 C0.99 0 1.98 0 3 0 C3.66 2.97 4.32 5.94 5 9 C3.02 9 1.04 9 -1 9 C-0.67 6.03 -0.34 3.06 0 0 Z " fill="#C08B90" transform="translate(191,312)"/>
<path d="M0 0 C0.99 0 1.98 0 3 0 C2.64505955 2.62655933 2.27538036 4.57968261 0.8125 6.8125 C-1.79361661 8.51995571 -3.9599355 8.20267097 -7 8 C-7 7.34 -7 6.68 -7 6 C-5.33720673 4.9935725 -3.67016516 3.99414593 -2 3 C-1.34 2.01 -0.68 1.02 0 0 Z " fill="#C79A9E" transform="translate(212,310)"/>
<path d="M0 0 C0.66 0.66 1.32 1.32 2 2 C1.625 5.625 1.625 5.625 1 9 C0.01 9.33 -0.98 9.66 -2 10 C-1.67 11.65 -1.34 13.3 -1 15 C-2.65 15.33 -4.3 15.66 -6 16 C-5.34 15.67 -4.68 15.34 -4 15 C-4 12.69 -4 10.38 -4 8 C-3.01 8 -2.02 8 -1 8 C-0.67 5.36 -0.34 2.72 0 0 Z " fill="#C89B9F" transform="translate(217,311)"/>
<path d="M0 0 C3.68754757 0.49831724 5.60490662 1.10067643 8 4 C6.68 4 5.36 4 4 4 C4 4.66 4 5.32 4 6 C0.31733897 5.40049704 -3.34543185 4.75241109 -7 4 C-7 3.67 -7 3.34 -7 3 C-1.25 2.875 -1.25 2.875 1 4 C0.67 2.68 0.34 1.36 0 0 Z " fill="#98484F" transform="translate(222,334)"/>
<path d="M0 0 C0.33 0.66 0.66 1.32 1 2 C1.99 2 2.98 2 4 2 C4.33 3.98 4.66 5.96 5 8 C3.35 8.33 1.7 8.66 0 9 C-1.36623674 6.26752652 -1.128426 4.01801098 -1 1 C-0.67 0.67 -0.34 0.34 0 0 Z " fill="#8D3139" transform="translate(178,346)"/>
<path d="M0 0 C0 1.32 0 2.64 0 4 C-1.98 4.99 -1.98 4.99 -4 6 C-4 5.01 -4 4.02 -4 3 C-6.31 3.66 -8.62 4.32 -11 5 C-11.33 4.01 -11.66 3.02 -12 2 C-10.7625 1.67 -9.525 1.34 -8.25 1 C-7.55390625 0.814375 -6.8578125 0.62875 -6.140625 0.4375 C-4 0 -4 0 0 0 Z " fill="#BB8085" transform="translate(221,325)"/>
<path d="M0 0 C0.33 0 0.66 0 1 0 C1.06058594 1.04800781 1.12117187 2.09601563 1.18359375 3.17578125 C1.26801738 4.55470048 1.35266447 5.93360605 1.4375 7.3125 C1.47681641 8.00279297 1.51613281 8.69308594 1.55664062 9.40429688 C1.74927415 12.47161535 2.02322717 15.06968152 3 18 C2.01 18.66 1.02 19.32 0 20 C-0.99 19.34 -1.98 18.68 -3 18 C-2.01 16.515 -2.01 16.515 -1 15 C-0.70008931 12.41114829 -0.49134775 9.90850918 -0.375 7.3125 C-0.33632812 6.61060547 -0.29765625 5.90871094 -0.2578125 5.18554688 C-0.1637666 3.45745345 -0.0808032 1.72876325 0 0 Z " fill="#A1585E" transform="translate(238,363)"/>
<path d="M0 0 C0 1.32 0 2.64 0 4 C-5.61 3.67 -11.22 3.34 -17 3 C-17 2.67 -17 2.34 -17 2 C-16.15695313 1.93941406 -15.31390625 1.87882812 -14.4453125 1.81640625 C-13.34960938 1.73261719 -12.25390625 1.64882813 -11.125 1.5625 C-10.03445312 1.48128906 -8.94390625 1.40007812 -7.8203125 1.31640625 C-4.81774102 0.97955266 -3.05142118 0 0 0 Z " fill="#AD696F" transform="translate(217,328)"/>
<path d="M0 0 C0.66 0 1.32 0 2 0 C1.67 2.64 1.34 5.28 1 8 C1.99 8.33 2.98 8.66 4 9 C3.401875 9.2475 2.80375 9.495 2.1875 9.75 C-0.28647521 11.16370012 -1.43370255 12.65055383 -3 15 C-2 10 -1 5 0 0 Z " fill="#A85F66" transform="translate(172,352)"/>
<path d="M0 0 C1.98 0.66 3.96 1.32 6 2 C6 2.99 6 3.98 6 5 C3.36 5 0.72 5 -2 5 C-2 4.01 -2 3.02 -2 2 C-1.34 2 -0.68 2 0 2 C0 1.34 0 0.68 0 0 Z " fill="#DAC4C5" transform="translate(218,338)"/>
<path d="M0 0 C1.32 0 2.64 0 4 0 C6.41847197 2.50484597 7 3.46013806 7 7 C6.01 6.67 5.02 6.34 4 6 C4 5.34 4 4.68 4 4 C3.34 4 2.68 4 2 4 C1.67 4.99 1.34 5.98 1 7 C-0.231394 4.53721199 -0.07159196 2.7204945 0 0 Z " fill="#B26F76" transform="translate(181,315)"/>
<path d="M0 0 C0.6875 1.8125 0.6875 1.8125 1 4 C-1.14919975 7.28701138 -4.36716484 7.95051429 -8 9 C-8 7 -8 7 -6.5625 5.5 C-6.046875 5.005 -5.53125 4.51 -5 4 C-4.67 3.34 -4.34 2.68 -4 2 C-3.01 2 -2.02 2 -1 2 C-0.67 1.34 -0.34 0.68 0 0 Z " fill="#D1B1B4" transform="translate(207,348)"/>
<path d="M0 0 C1.98 0 3.96 0 6 0 C6 0.66 6 1.32 6 2 C6.99 2.33 7.98 2.66 9 3 C5.78548731 4.60725635 2.56387464 4.05748185 -1 4 C-0.67 2.68 -0.34 1.36 0 0 Z " fill="#934148" transform="translate(168,335)"/>
<path d="M0 0 C0.33 1.32 0.66 2.64 1 4 C0.34 4 -0.32 4 -1 4 C-1.33 5.65 -1.66 7.3 -2 9 C-0.68 8.34 0.64 7.68 2 7 C1.67 8.32 1.34 9.64 1 11 C-0.32 11 -1.64 11 -3 11 C-2.67 8.03 -2.34 5.06 -2 2 C-1.34 2 -0.68 2 0 2 C0 1.34 0 0.68 0 0 Z " fill="#953C44" transform="translate(176,349)"/>
<path d="M0 0 C0.598125 0.495 1.19625 0.99 1.8125 1.5 C3.97029994 3.28276418 3.97029994 3.28276418 7 3 C6.34 4.65 5.68 6.3 5 8 C3.68 7.67 2.36 7.34 1 7 C0.67 4.69 0.34 2.38 0 0 Z " fill="#BF8A8E" transform="translate(200,316)"/>
<path d="M0 0 C1.98 0 3.96 0 6 0 C6 0.99 6 1.98 6 3 C4.68 3 3.36 3 2 3 C2 4.32 2 5.64 2 7 C0.68 6.67 -0.64 6.34 -2 6 C-1.01 5.67 -0.02 5.34 1 5 C0.67 3.35 0.34 1.7 0 0 Z " fill="#B87A80" transform="translate(209,338)"/>
<path d="M0 0 C2.375 0.25 2.375 0.25 5 1 C6.3125 3.0625 6.3125 3.0625 7 5 C4.69 4.67 2.38 4.34 0 4 C0 2.68 0 1.36 0 0 Z " fill="#B7797E" transform="translate(160,317)"/>
<path d="M0 0 C3.3 0.33 6.6 0.66 10 1 C8.02 1.99 8.02 1.99 6 3 C6.33 3.66 6.66 4.32 7 5 C4.625 4.75 4.625 4.75 2 4 C1.34 2.68 0.68 1.36 0 0 Z " fill="#A86268" transform="translate(196,397)"/>
<path d="M0 0 C0.33 0 0.66 0 1 0 C1 2.97 1 5.94 1 9 C-0.32 9 -1.64 9 -3 9 C-2.67 6.69 -2.34 4.38 -2 2 C-1.34 2 -0.68 2 0 2 C0 1.34 0 0.68 0 0 Z " fill="#D4B3B6" transform="translate(198,309)"/>
<path d="M0 0 C3.78706732 0 7.26513121 0.4254048 11 1 C11 1.33 11 1.66 11 2 C7.37 2.66 3.74 3.32 0 4 C0 2.68 0 1.36 0 0 Z " fill="#C99EA2" transform="translate(203,336)"/>
<path d="M0 0 C0 0.99 0 1.98 0 3 C0.66 3 1.32 3 2 3 C2 3.66 2 4.32 2 5 C2.66 5.33 3.32 5.66 4 6 C1.23723823 5.47731534 -1.3260876 4.89130413 -4 4 C-4 3.01 -4 2.02 -4 1 C-2 0 -2 0 0 0 Z " fill="#7B1F27" transform="translate(190,328)"/>
<path d="M0 0 C1 3 1 3 0 6 C-0.66 6 -1.32 6 -2 6 C-2 5.34 -2 4.68 -2 4 C-3.65 4 -5.3 4 -7 4 C-4.68143083 2.45428722 -2.49361571 1.20381448 0 0 Z " fill="#9D5056" transform="translate(223,394)"/>
<path d="M0 0 C4.455 0.99 4.455 0.99 9 2 C9 2.66 9 3.32 9 4 C7.35 4.66 5.7 5.32 4 6 C4 5.01 4 4.02 4 3 C2.68 2.67 1.36 2.34 0 2 C0 1.34 0 0.68 0 0 Z " fill="#A76268" transform="translate(190,353)"/>
<path d="M0 0 C3.68754757 0.49831724 5.60490662 1.10067643 8 4 C7.67 4.66 7.34 5.32 7 6 C6.34 5.67 5.68 5.34 5 5 C5 4.34 5 3.68 5 3 C3.35 3 1.7 3 0 3 C0 2.01 0 1.02 0 0 Z " fill="#C79A9E" transform="translate(183,351)"/>
<path d="M0 0 C0.33 0.99 0.66 1.98 1 3 C0.030625 3.12375 -0.93875 3.2475 -1.9375 3.375 C-2.948125 3.58125 -3.95875 3.7875 -5 4 C-5.33 4.66 -5.66 5.32 -6 6 C-6.66 5.67 -7.32 5.34 -8 5 C-8 4.34 -8 3.68 -8 3 C-5.36 2.01 -2.72 1.02 0 0 Z " fill="#82212A" transform="translate(182,332)"/>
<path d="M0 0 C2.97 0.495 2.97 0.495 6 1 C6.33 2.32 6.66 3.64 7 5 C4.69 4.34 2.38 3.68 0 3 C0 2.01 0 1.02 0 0 Z " fill="#7E252C" transform="translate(216,333)"/>
<path d="M0 0 C-0.66 2.31 -1.32 4.62 -2 7 C-3.5 5.6875 -3.5 5.6875 -5 4 C-5 3.01 -5 2.02 -5 1 C-3 0 -3 0 0 0 Z " fill="#CCA4A7" transform="translate(205,312)"/>
<path d="M0 0 C3.875 1.75 3.875 1.75 5 4 C4.34 4 3.68 4 3 4 C2.67 4.99 2.34 5.98 2 7 C0 5 0 5 -0.125 2.375 C-0.08375 1.59125 -0.0425 0.8075 0 0 Z " fill="#84262E" transform="translate(227,339)"/>
<path d="M0 0 C2.33294775 -0.04241723 4.66702567 -0.04092937 7 0 C8 1 8 1 8.0625 4.5625 C8.041875 5.696875 8.02125 6.83125 8 8 C7.67 8 7.34 8 7 8 C6.67 6.02 6.34 4.04 6 2 C4.68 2.33 3.36 2.66 2 3 C2 2.34 2 1.68 2 1 C1.34 0.67 0.68 0.34 0 0 Z " fill="#BA7F84" transform="translate(205,318)"/>
<path d="M0 0 C0.66 0 1.32 0 2 0 C2 0.66 2 1.32 2 2 C2.66 2 3.32 2 4 2 C4 3.65 4 5.3 4 7 C3.01 7.495 3.01 7.495 2 8 C0.74335022 5.09399739 0 3.20395416 0 0 Z " fill="#80242B" transform="translate(238,357)"/>
<path d="M0 0 C2 2 2 2 2 5 C-2.55384615 5.36923077 -2.55384615 5.36923077 -4.8125 3.5 C-5.204375 3.005 -5.59625 2.51 -6 2 C-3.03 2.495 -3.03 2.495 0 3 C0 2.01 0 1.02 0 0 Z " fill="#9D565C" transform="translate(190,394)"/>
<path d="M0 0 C1.32 0.33 2.64 0.66 4 1 C3.67 1.99 3.34 2.98 3 4 C0.69 4 -1.62 4 -4 4 C-2.68 3.67 -1.36 3.34 0 3 C0 2.01 0 1.02 0 0 Z " fill="#B16D73" transform="translate(182,322)"/>
<path d="M0 0 C0.99 0 1.98 0 3 0 C2.67 2.31 2.34 4.62 2 7 C1.67 6.34 1.34 5.68 1 5 C0.34 5 -0.32 5 -1 5 C-0.67 3.35 -0.34 1.7 0 0 Z " fill="#C39297" transform="translate(191,312)"/>
<path d="M0 0 C0.99 0 1.98 0 3 0 C2.67 1.65 2.34 3.3 2 5 C1.01 5 0.02 5 -1 5 C-0.67 3.35 -0.34 1.7 0 0 Z " fill="#C5969A" transform="translate(208,305)"/>
<path d="M0 0 C0.185625 0.9590625 0.185625 0.9590625 0.375 1.9375 C0.684375 2.9584375 0.684375 2.9584375 1 4 C1.66 4.33 2.32 4.66 3 5 C1.35 5.33 -0.3 5.66 -2 6 C-1.125 1.125 -1.125 1.125 0 0 Z " fill="#80242C" transform="translate(180,349)"/>
<path d="M0 0 C1 3 1 3 0 6 C0.99 6 1.98 6 3 6 C2.67 6.99 2.34 7.98 2 9 C1.01 8.67 0.02 8.34 -1 8 C-1.04241723 5.66705225 -1.04092937 3.33297433 -1 1 C-0.67 0.67 -0.34 0.34 0 0 Z " fill="#BE8C90" transform="translate(204,342)"/>
<path d="M0 0 C0.99 0.495 0.99 0.495 2 1 C1.01 1.495 1.01 1.495 0 2 C0 1.34 0 0.68 0 0 Z " fill="#DFCCCD" transform="translate(237,314)"/>
</svg>
